<svg enable-background="new 0 0 128 128" viewBox="0 0 128 128" xmlns="http://www.w3.org/2000/svg"> 
  
    
    <g> 
		<circle cx="64" cy="64" r="60" fill="black" />
        <g opacity=".2">
            <path d="M64,8c30.88,0,56,25.12,56,56s-25.12,56-56,56S8,94.88,8,64S33.12,8,64,8 M64,4 C30.86,4,4,30.86,4,64s26.86,60,60,60s60-26.86,60-60S97.14,4,64,4L64,4z" fill="#424242" />
        </g>
       
        <radialGradient id="h" cx="107.55" cy="48.462" r="11.738" gradientTransform="matrix(.0682 .9977 -1.0103 .069 145.32 -66.927)" gradientUnits="userSpaceOnUse">
            <stop stop-color="#E0A800" offset=".0061135" />
            <stop stop-color="#E0A800" stop-opacity=".1074" offset=".6098" />
            <stop stop-color="#E0A800" stop-opacity="0" offset=".6825" />
        </radialGradient>
        <path d="m114.19 45.87c-0.12 5.46-4.74 9.78-10.32 9.66s-10.01-4.64-9.89-10.1 4.74-9.78 10.32-9.66c5.58 0.13 10.01 4.65 9.89 10.1z" fill="url(#h)" />
        <radialGradient id="g" cx="90.646" cy="103.4" r="14.343" fx="89.896" fy="102.54" gradientTransform="matrix(.9964 .0852 -.0775 .9066 21.54 -33.922)" gradientUnits="userSpaceOnUse">
            <stop stop-color="#E0A800" offset=".0061135" />
            <stop stop-color="#E0A800" stop-opacity=".1074" offset=".6098" />
            <stop stop-color="#E0A800" stop-opacity="0" offset=".6825" />
        </radialGradient>
        <path d="m118.45 73.94c-0.49 5.69-5.48 9.92-11.15 9.43s-9.87-5.49-9.38-11.19c0.49-5.69 5.48-9.92 11.15-9.43s9.87 5.5 9.38 11.19z" fill="url(#g)" />
        <radialGradient id="f" cx="75.608" cy="62.011" r="7.4702" fx="75.218" fy="61.564" gradientTransform="matrix(.9964 .0852 -.0775 .9066 21.857 -37.637)" gradientUnits="userSpaceOnUse">
            <stop stop-color="#E0A800" offset=".0061135" />
            <stop stop-color="#E0A800" stop-opacity=".1074" offset=".6098" />
            <stop stop-color="#E0A800" stop-opacity="0" offset=".6825" />
        </radialGradient>
        <path d="m98.24 26.11c-0.25 2.97-2.85 5.17-5.8 4.91-2.95-0.25-5.14-2.86-4.89-5.83s2.85-5.17 5.8-4.91 5.15 2.86 4.89 5.83z" fill="url(#f)" />
        <radialGradient id="e" cx="85.79" cy="123.41" r="12.604" fx="85.132" fy="122.66" gradientTransform="matrix(.9964 .0852 -.0775 .9066 21.386 -32.125)" gradientUnits="userSpaceOnUse">
            <stop stop-color="#E0A800" offset=".0061135" />
            <stop stop-color="#E0A800" stop-opacity=".1074" offset=".6098" />
            <stop stop-color="#E0A800" stop-opacity="0" offset=".6825" />
        </radialGradient>
        <path d="m110.14 92.69c-0.43 5-4.81 8.72-9.79 8.29s-8.67-4.83-8.25-9.83 4.81-8.72 9.79-8.29c4.99 0.42 8.68 4.83 8.25 9.83z" fill="url(#e)" />
    </g>
</svg>